<svg width="218" height="109" viewBox="0 0 218 109" fill="none" xmlns="http://www.w3.org/2000/svg">
<path d="M50.2574 4.24264C52.6005 1.89949 56.3995 1.89949 58.7426 4.24264L104.757 50.2574C107.101 52.6005 107.101 56.3995 104.757 58.7426L58.7426 104.757C56.3995 107.101 52.6005 107.101 50.2574 104.757L4.24264 58.7426C1.89949 56.3995 1.89949 52.6005 4.24264 50.2574L50.2574 4.24264Z" fill="#007AFF"/>
<path d="M59.4976 39.9778V65.9518H53.1706V50.3748L47.3616 65.9518H42.2556L36.4096 50.3378V65.9518H30.0826V39.9778H37.5566L44.8456 57.9598L52.0606 39.9778H59.4976ZM86.6174 45.3058L73.6674 75.7568H66.8594L71.5954 65.2488L63.1964 45.3058H70.2634L75.0364 58.2188L79.7724 45.3058H86.6174Z" fill="white"/>
<path d="M115.354 61.0678H123.642V65.9518H109.027V39.9778H115.354V61.0678ZM140.424 66.2108C137.982 66.2108 135.737 65.6435 133.69 64.5088C131.667 63.3741 130.051 61.7955 128.843 59.7728C127.659 57.7255 127.067 55.4315 127.067 52.8908C127.067 50.3501 127.659 48.0685 128.843 46.0458C130.051 44.0231 131.667 42.4445 133.69 41.3098C135.737 40.1751 137.982 39.6078 140.424 39.6078C142.866 39.6078 145.098 40.1751 147.121 41.3098C149.168 42.4445 150.771 44.0231 151.931 46.0458C153.115 48.0685 153.707 50.3501 153.707 52.8908C153.707 55.4315 153.115 57.7255 151.931 59.7728C150.747 61.7955 149.143 63.3741 147.121 64.5088C145.098 65.6435 142.866 66.2108 140.424 66.2108ZM140.424 60.4388C142.496 60.4388 144.148 59.7481 145.382 58.3668C146.64 56.9855 147.269 55.1601 147.269 52.8908C147.269 50.5968 146.64 48.7715 145.382 47.4148C144.148 46.0335 142.496 45.3428 140.424 45.3428C138.327 45.3428 136.65 46.0211 135.392 47.3778C134.158 48.7345 133.542 50.5721 133.542 52.8908C133.542 55.1848 134.158 57.0225 135.392 58.4038C136.65 59.7605 138.327 60.4388 140.424 60.4388ZM175.949 48.1918C175.48 47.3285 174.802 46.6748 173.914 46.2308C173.05 45.7621 172.027 45.5278 170.843 45.5278C168.795 45.5278 167.155 46.2061 165.922 47.5628C164.688 48.8948 164.072 50.6831 164.072 52.9278C164.072 55.3205 164.713 57.1951 165.996 58.5518C167.303 59.8838 169.091 60.5498 171.361 60.5498C172.915 60.5498 174.222 60.1551 175.283 59.3658C176.368 58.5765 177.157 57.4418 177.651 55.9618H169.622V51.2998H183.386V57.1828C182.917 58.7615 182.115 60.2291 180.981 61.5858C179.871 62.9425 178.452 64.0401 176.726 64.8788C174.999 65.7175 173.05 66.1368 170.88 66.1368C168.314 66.1368 166.02 65.5818 163.998 64.4718C162 63.3371 160.433 61.7708 159.299 59.7728C158.189 57.7748 157.634 55.4931 157.634 52.9278C157.634 50.3625 158.189 48.0808 159.299 46.0828C160.433 44.0601 162 42.4938 163.998 41.3838C165.996 40.2491 168.277 39.6818 170.843 39.6818C173.951 39.6818 176.565 40.4341 178.687 41.9388C180.833 43.4435 182.251 45.5278 182.942 48.1918H175.949ZM200.654 66.2108C198.212 66.2108 195.968 65.6435 193.92 64.5088C191.898 63.3741 190.282 61.7955 189.073 59.7728C187.889 57.7255 187.297 55.4315 187.297 52.8908C187.297 50.3501 187.889 48.0685 189.073 46.0458C190.282 44.0231 191.898 42.4445 193.92 41.3098C195.968 40.1751 198.212 39.6078 200.654 39.6078C203.096 39.6078 205.329 40.1751 207.351 41.3098C209.399 42.4445 211.002 44.0231 212.161 46.0458C213.345 48.0685 213.937 50.3501 213.937 52.8908C213.937 55.4315 213.345 57.7255 212.161 59.7728C210.977 61.7955 209.374 63.3741 207.351 64.5088C205.329 65.6435 203.096 66.2108 200.654 66.2108ZM200.654 60.4388C202.726 60.4388 204.379 59.7481 205.612 58.3668C206.87 56.9855 207.499 55.1601 207.499 52.8908C207.499 50.5968 206.87 48.7715 205.612 47.4148C204.379 46.0335 202.726 45.3428 200.654 45.3428C198.558 45.3428 196.88 46.0211 195.622 47.3778C194.389 48.7345 193.772 50.5721 193.772 52.8908C193.772 55.1848 194.389 57.0225 195.622 58.4038C196.88 59.7605 198.558 60.4388 200.654 60.4388Z" fill="#231F20"/>
</svg>
